# xmcd
#
# Track frame offsets:
#	150
#	16254
#	26066
#	44455
#	66595
#	81975
#	88300
#	107489
#	127083
#	146014
#	153431
#	174805
#	196373
#	212512
#	234521
#
# Disc length: 3369 seconds
#
# Revision: 0
# Processed by: cddbd v1.4PL0 Copyright (c) Steve Scherf et al.
# Submitted via: EasyCDDAExtractor 4.5.0.2
#
DISCID=d00d270f
DTITLE=Kang Ta - Polaris
DYEAR=2001
DGENRE=Pop
TTITLE0=Falling in love
TTITLE1=Longing - Interlude
TTITLE2=Polaris
TTITLE3=Thanks God
TTITLE4=My life
TTITLE5=Last winter
TTITLE6=In your eyes
TTITLE7=Still...
TTITLE8=Doobidub
TTITLE9=I will
TTITLE10=Last summer night
TTITLE11=Blue moon
TTITLE12=with your white face
TTITLE13=Rainy day
TTITLE14=Polaris - instrument
EXTD=
EXTT0=
EXTT1=
EXTT2=
EXTT3=
EXTT4=
EXTT5=
EXTT6=
EXTT7=
EXTT8=
EXTT9=
EXTT10=
EXTT11=
EXTT12=
EXTT13=
EXTT14=
PLAYORDER=
